# xmcd
#
# Track frame offsets:
#	150
#	17487
#	34387
#	54500
#	74160
#	94910
#	116437
#	136172
#	155202
#	173905
#	197892
#
# Disc length: 2913 seconds
# Revision: 0
# Processed by: cddbd v1.5.2PL0 Copyright (c) Steve Scherf et al.
# Submitted via: dBpowerAMP V12.0
#
DISCID=9f0b5f0b
DTITLE=Massimo Ranieri - Canzoni in corso
DYEAR=1997
DGENRE=Italian
TTITLE0=Ti parlero' d'amore
TTITLE1=Quando
TTITLE2=Spaccacuore
TTITLE3=Se me ne andrò(se te ne andrai via da me)
TTITLE4=I venti del cuore
TTITLE5=Le storie d'amore
TTITLE6=Attimi
TTITLE7=Abita in te
TTITLE8=Gli assolati vetri
TTITLE9=Il canto
TTITLE10=Mi troverai
EXTD=
EXTT0=
EXTT1=
EXTT2=
EXTT3=
EXTT4=
EXTT5=
EXTT6=
EXTT7=
EXTT8=
EXTT9=
EXTT10=
PLAYORDER=
